<svg xmlns="http://www.w3.org/2000/svg" version="1.1" xmlns:xlink="http://www.w3.org/1999/xlink" xmlns:svgjs="http://svgjs.dev/svgjs" width="1500" height="1500" viewBox="0 0 1500 1500"><rect width="1500" height="1500" fill="#ffffff"></rect><g transform="matrix(0.6666666666666666,0,0,0.6666666666666666,249.39393939393938,649.472110008129)"><svg viewBox="0 0 396 80" data-background-color="#ffffff" preserveAspectRatio="xMidYMid meet" height="303" width="1500" xmlns="http://www.w3.org/2000/svg" xmlns:xlink="http://www.w3.org/1999/xlink"><g id="tight-bounds" transform="matrix(1,0,0,1,0.2400000000000091,-0.18697426064514389)"><svg viewBox="0 0 395.52 80.3739485212903" height="80.3739485212903" width="395.52"><g><svg viewBox="0 0 395.52 80.3739485212903" height="80.3739485212903" width="395.52"><g><svg viewBox="0 0 556.6896308822073 113.12536340731855" height="80.3739485212903" width="395.52"><g><rect width="7.381882791206238" height="82.265550089982" x="414.8443005005399" y="15.429906658668273" fill="#c40430" opacity="1" stroke-width="0" stroke="transparent" fill-opacity="1" class="rect-qz-0" data-fill-palette-color="primary" rx="1%" id="qz-0" data-palette-color="#c40430"></rect></g><g transform="matrix(1,0,0,1,0,15.634547330533898)"><svg viewBox="0 0 395.52 81.85626874625075" height="81.85626874625075" width="395.52"><g id="textblocktransform"><svg viewBox="0 0 395.52 81.85626874625075" height="81.85626874625075" width="395.52" id="textblock"><g><svg viewBox="0 0 395.52 81.85626874625075" height="81.85626874625075" width="395.52"><g transform="matrix(1,0,0,1,0,0)"><svg width="395.52" viewBox="0.2 -33.08 162.78 33.69" height="81.85626874625075" data-palette-color="#c40430"><g class="wordmark-text-0" data-fill-palette-color="primary" id="text-0"><path d="M15.87 0.02L15.82 0.1Q15.09 0 13.33 0L13.33 0 10.5 0Q9.67 0 9.13 0.05L9.13 0.05 9.11 0Q9.2-0.17 9.2-0.39 9.2-0.61 9.17-0.85 9.13-1.1 8.97-1.73 8.81-2.37 8.5-3.56L8.5-3.56 0.2-32.57Q1.76-32.47 3.98-32.47 6.2-32.47 6.86-32.67L6.86-32.67 12.62-10.57 18.24-32.57Q18.6-32.54 18.9-32.52L18.9-32.52 19.43-32.52Q20.24-32.47 21.46-32.47 22.68-32.47 23.97-32.67L23.97-32.67 29.69-10.57 34.59-32.57Q36.06-32.47 38.43-32.47 40.8-32.47 41.31-32.67L41.31-32.67 34.28-6.91Q32.93-2.47 32.86-1.64 32.79-0.81 32.79-0.49 32.79-0.17 32.89 0.02L32.89 0.02 32.84 0.1Q32.06 0 30.37 0L30.37 0Q28.91 0 27.71 0 26.51 0 25.98 0.05L25.98 0.05 25.95 0Q26.05-0.17 26.05-0.39 26.05-0.61 26.03-0.83 26-1.05 25.89-1.67 25.78-2.29 25.54-3.52L25.54-3.52 24.88-6.84 20.87-22.05 17.07-6.91Q15.89-2.25 15.84-1.54L15.84-1.54Q15.75-0.2 15.87 0.02L15.87 0.02ZM52.54-20.58L52.54 0.15Q51.36 0 48.02 0L48.02 0 46.07 0 46.07-32.57Q47.63-32.47 49.51-32.47 51.39-32.47 52.17-32.67L52.17-32.67 60.37-18.73 68.26-32.67Q69.04-32.47 71.24-32.47 73.44-32.47 75-32.57L75-32.57 75 0 73.04 0Q69.7 0 68.53 0.15L68.53 0.15 68.53-21.73 60.54-7.45 52.54-20.58ZM103.12-30.66L103.12-30.66 102.66-23.49 102.49-23.44Q100.68-26.15 96.33-26.95L96.33-26.95Q94.97-27.22 93.71-27.22 92.45-27.22 91.56-27 90.67-26.78 90.03-26.37L90.03-26.37Q88.69-25.49 88.69-24.07L88.69-24.07Q88.69-22.22 89.86-21.29L89.86-21.29Q91.33-20.17 94.72-19.71 98.12-19.26 100.17-18.48 102.22-17.7 103.54-16.5L103.54-16.5Q106.03-14.26 106.03-10.16L106.03-10.16Q106.03-4.79 101.97-1.88L101.97-1.88Q98.51 0.61 93.23 0.61L93.23 0.61Q88.98 0.61 84.83-1L84.83-1Q83.47-1.54 82.44-2.25L82.44-2.25 82.71-10.4 82.81-10.47Q85.83-5.25 92.74-5.25L92.74-5.25Q97.65-5.25 99.24-7.62L99.24-7.62Q99.78-8.42 99.78-9.41 99.78-10.4 99.46-11.05 99.14-11.69 98.41-12.16L98.41-12.16Q96.99-13.09 93.65-13.4 90.3-13.72 88.18-14.6 86.05-15.48 84.79-16.77L84.79-16.77Q82.49-19.12 82.49-23.32L82.49-23.32Q82.49-27.66 85.54-30.35L85.54-30.35Q88.64-33.08 93.9-33.08 99.16-33.08 103.12-30.66ZM119.01-5.86L128.97-5.86Q130.49-5.86 131.07-6.15L131.07-6.15 131.17-6.13 130.93 0 112.64 0 112.64-32.64Q113.3-32.59 114.1-32.57L114.1-32.57 115.81-32.52Q117.52-32.47 119.52-32.47L119.52-32.47Q125.11-32.47 130.58-32.67L130.58-32.67Q130.31-30.52 130.31-26.93L130.31-26.93Q130.31-26.54 130.36-26.34L130.36-26.34 130.31-26.27Q129.05-26.64 126.7-26.64L126.7-26.64 119.01-26.64 119.01-20.41 124.8-20.41Q127.48-20.41 128.02-20.56L128.02-20.56 128.09-14.53Q126.92-14.65 125.07-14.65L125.07-14.65 119.01-14.65 119.01-5.86ZM142.35-7.03L140.05 0.2Q137.95 0 135.15 0L135.15 0 133.22 0 143.84-29.76Q144.55-31.76 144.55-32.09 144.55-32.42 144.52-32.5L144.52-32.5 144.55-32.54Q146.13-32.47 147.91-32.47L147.91-32.47Q149.38-32.47 151.43-32.52L151.43-32.52 151.45-32.47Q151.41-32.37 151.41-32.2L151.41-32.2Q151.41-31.74 152.14-29.74L152.14-29.74 162.98 0.07Q162.49 0.05 161.83 0.05L161.83 0.05Q161.83 0.05 160.56 0L160.56 0Q159.95 0 159.46 0L159.46 0 155.68 0 153.38-7.03 142.35-7.03ZM144.2-12.89L151.48-12.89 147.79-24.24 144.2-12.89Z" fill="#c40430" data-fill-palette-color="primary"></path></g></svg></g></svg></g></svg></g></svg></g><g transform="matrix(1,0,0,1,441.550483792286,0)"><svg viewBox="0 0 115.13914708992128 113.12536340731855" height="113.12536340731855" width="115.13914708992128"><g><svg xmlns="http://www.w3.org/2000/svg" xmlns:xlink="http://www.w3.org/1999/xlink" version="1.1" x="0" y="0" viewBox="0 0.875 100 98.25099999999999" enable-background="new 0 0 100 100" xml:space="preserve" height="113.12536340731855" width="115.13914708992128" class="icon-icon-0" data-fill-palette-color="accent" id="icon-0"><path fill-rule="evenodd" clip-rule="evenodd" d="M100 49.666c0 13.657-4.907 25.305-14.72 34.946-9.814 9.676-21.564 14.514-35.254 14.514-13.69 0-25.426-4.753-35.204-14.256C4.941 75.296 0 63.682 0 50.026c0-13.655 4.941-25.287 14.822-34.895C24.601 5.627 36.336 0.877 50.026 0.875c13.689 0 25.406 4.684 35.151 14.05C95.059 24.431 100 36.011 100 49.666zM95.119 49.388c0-12.123-4.478-22.514-13.431-31.174C72.8 9.652 62.278 5.373 50.122 5.371l-4.901 10.048 5.343 1.078 4.166-4.166 7.353 0.49 1.471 3.921-4.411 4.411v2.647l2.745 0.539 1.274-2.059 4.853-3.039-0.147 2.059 1.813 3.137-2.156 2.254 1.372 1.324-3.235 0.196 1.324 2.647-7.01 3.333 1.078 3.971h-2.206l-0.979-3.921-5.146-0.098-0.932 1.52-2.107-0.98-3.432 3.431 2.745 3.284-0.098 3.627 2.892 2.157 16.861 1.912 5.343 3.774-0.638 9.362L61.739 73.846c-0.752 0.753-1.487 2.844-2.206 6.275-0.687 3.234-0.931 5.538-0.734 6.91l-1.765 2.01c-1.373-2.712-3.154-6.879-5.344-12.499-0.523-1.927-0.979-4.378-1.372-7.353-0.294-2.45-0.588-4.916-0.882-7.4l-7.353-6.471 6.52-7.695-2.696-3.873c-4.151-0.849-6.847-1.601-8.088-2.254-1.242-0.687-3.382-2.564-6.421-5.637l2.549 4.95-1.716 0.735-3.97-7.451 0.784-6.96-1.226-4.902-3.823-3.725-2.794-0.686-2.451 1.715-2.695 0.687C8.638 28.786 4.93 38.621 4.93 49.73c0 12.418 4.443 22.957 13.333 31.615 8.789 8.562 19.408 12.84 31.859 12.842 12.45 0 23.053-4.362 31.812-13.088C90.723 72.376 95.117 61.805 95.119 49.388z" fill="#1f2889" data-fill-palette-color="accent"></path></svg></g></svg></g></svg></g></svg></g><defs></defs></svg><rect width="395.52" height="80.3739485212903" fill="none" stroke="none" visibility="hidden"></rect></g></svg></g></svg>